<svg width="14" height="14" viewBox="0 0 14 14" fill="none" xmlns="http://www.w3.org/2000/svg">
<path d="M13.0948 3.87224L10.1278 0.904547C10.0291 0.805859 9.91197 0.727574 9.78305 0.674163C9.65413 0.620752 9.51594 0.593262 9.37639 0.593262C9.23684 0.593262 9.09866 0.620752 8.96974 0.674163C8.84081 0.727574 8.72367 0.805859 8.625 0.904547L0.436451 9.09376C0.337359 9.19207 0.258796 9.30909 0.20533 9.43803C0.151863 9.56696 0.124559 9.70524 0.125005 9.84482V12.8125C0.125005 13.0943 0.236947 13.3646 0.436204 13.5638C0.635462 13.7631 0.905713 13.875 1.18751 13.875H4.1552C4.29478 13.8755 4.43306 13.8482 4.56199 13.7947C4.69093 13.7412 4.80795 13.6627 4.90626 13.5636L13.0948 5.37501C13.1935 5.27635 13.2718 5.15921 13.3252 5.03029C13.3786 4.90136 13.4061 4.76318 13.4061 4.62363C13.4061 4.48408 13.3786 4.3459 13.3252 4.21697C13.2718 4.08805 13.1935 3.97091 13.0948 3.87224ZM1.40731 9.62501L7.03126 4.00107L8.13958 5.10939L2.51563 10.7327L1.40731 9.62501ZM1.18751 10.9073L3.0927 12.8125H1.18751V10.9073ZM4.37501 12.5927L3.26668 11.4844L8.89063 5.86044L9.99895 6.96876L4.37501 12.5927ZM10.75 6.21771L7.78231 3.25002L9.37606 1.65627L12.3438 4.6233L10.75 6.21771Z" fill="black"/>
</svg>
