<svg width="104" height="53" viewBox="0 0 104 53" fill="none" xmlns="http://www.w3.org/2000/svg">
<path d="M13.475 0.349976V53H0.650024V0.349976H13.475Z" fill="#179349"/>
<path d="M35.5942 10.625V21.275H52.7692V31.175H35.5942V42.725H55.0192V53H22.7692V0.349976H55.0192V10.625H35.5942Z" fill="#179349"/>
<path d="M103.47 17.3C103.47 20.35 102.77 23.15 101.37 25.7C99.9703 28.2 97.8203 30.225 94.9203 31.775C92.0203 33.325 88.4203 34.1 84.1203 34.1H76.1703V53H63.3453V0.349976H84.1203C88.3203 0.349976 91.8703 1.07498 94.7703 2.52497C97.6703 3.97497 99.8453 5.97497 101.295 8.52497C102.745 11.075 103.47 14 103.47 17.3ZM83.1453 23.9C85.5953 23.9 87.4203 23.325 88.6203 22.175C89.8203 21.025 90.4203 19.4 90.4203 17.3C90.4203 15.2 89.8203 13.575 88.6203 12.425C87.4203 11.275 85.5953 10.7 83.1453 10.7H76.1703V23.9H83.1453Z" fill="#179349"/>
</svg>
